Coordinates
version=1
nRows=54
nColumns=12
inDegrees=yes

Units are S.I. units (second, meters, Newtons, ...)
Angles are in degrees

endheader
time	SC_y	SC_z	SC_x	AC_y	AC_z	AC_x	GH_y	GH_z	GH_yy	EL_x	PS_y
       0.0              -47.74          25.96          20.27           35.2          4.104         -10.61           57.9          80.88          24.55          15.75          112.5
  0.007524              -47.74          25.96          20.27           35.2          4.101         -10.61          57.88          80.87          24.55          15.77          112.5
   0.01505              -47.74          25.96          20.26           35.2          4.098          -10.6          57.86          80.87          24.56          15.78          112.5
   0.02257              -47.73          25.97          20.26           35.2          4.095          -10.6          57.84          80.86          24.56           15.8          112.5
   0.03009              -47.73          25.97          20.26           35.2          4.092         -10.59          57.82          80.85          24.57          15.81          112.5
   0.03762              -47.73          25.97          20.25          35.21          4.088         -10.59           57.8          80.84          24.58          15.83          112.5
   0.04514              -47.72          25.97          20.25          35.21          4.085         -10.58          57.77          80.83          24.59          15.85          112.5
   0.05267              -47.72          25.97          20.25          35.21          4.081         -10.58          57.75          80.82          24.59          15.87          112.5
   0.06019              -47.71          25.98          20.24          35.21          4.076         -10.57          57.72           80.8           24.6          15.89          112.5
   0.06771              -47.71          25.98          20.24          35.22          4.072         -10.56          57.69          80.79          24.61          15.91          112.5
   0.07524               -47.7          25.98          20.23          35.22          4.067         -10.56          57.65          80.78          24.62          15.93          112.5
   0.08276               -47.7          25.99          20.23          35.22          4.062         -10.55          57.62          80.76          24.63          15.96          112.5
   0.09028              -47.69          25.99          20.22          35.23          4.056         -10.54          57.58          80.75          24.65          15.99          112.5
   0.09781              -47.69          25.99          20.21          35.23           4.05         -10.53          57.54          80.73          24.66          16.02          112.5
    0.1053              -47.68           26.0          20.21          35.24          4.043         -10.52           57.5          80.71          24.67          16.05          112.5
    0.1129              -47.67           26.0           20.2          35.24          4.036         -10.51          57.45          80.69          24.69          16.08          112.5
    0.1204              -47.66          26.01          20.19          35.25          4.028          -10.5           57.4          80.67           24.7          16.12          112.5
    0.1279              -47.65          26.01          20.18          35.25          4.019         -10.49          57.34          80.64          24.72          16.16          112.5
    0.1354              -47.64          26.02          20.17          35.26           4.01         -10.47          57.28          80.62          24.74          16.21          112.5
     0.143              -47.63          26.02          20.16          35.27            4.0         -10.46          57.21          80.59          24.76          16.26          112.5
    0.1505              -47.62          26.03          20.15          35.28          3.989         -10.44          57.13          80.56          24.79          16.31          112.5
     0.158              -47.61          26.04          20.14          35.28          3.976         -10.42          57.05          80.52          24.81          16.37          112.5
    0.1655              -47.59          26.04          20.13          35.29          3.963          -10.4          56.96          80.48          24.84          16.44          112.5
     0.173              -47.58          26.05          20.11           35.3          3.948         -10.38          56.86          80.44          24.87          16.51          112.5
    0.1806              -47.56          26.06          20.09          35.32          3.931         -10.35          56.75          80.39          24.91          16.59          112.5
    0.1881              -47.54          26.07          20.07          35.33          3.912         -10.32          56.62          80.34          24.95          16.68          112.5
    0.1956              -47.52          26.09          20.05          35.34          3.891         -10.29          56.48          80.28          24.99          16.79          112.5
    0.2031              -47.49           26.1          20.03          35.36          3.868         -10.26          56.32          80.21          25.04           16.9          112.5
    0.2107              -47.47          26.12           20.0          35.38          3.841         -10.22          56.15          80.14          25.09          17.03          112.5
    0.2182              -47.43          26.13          19.97           35.4          3.811         -10.17          55.94          80.05          25.16          17.18          112.5
    0.2257               -47.4          26.15          19.93          35.43          3.776         -10.12          55.71          79.96          25.23          17.35          112.5
    0.2332              -47.36          26.18          19.89          35.45          3.736         -10.06          55.45          79.84          25.31          17.54          112.4
    0.2408              -47.31           26.2          19.85          35.49          3.691          -9.99          55.14          79.71          25.41          17.76          112.4
    0.2483              -47.25          26.24          19.79          35.52          3.637          -9.91          54.79          79.56          25.52          18.02          112.4
    0.2558              -47.19          26.27          19.73          35.57          3.575         -9.817          54.37          79.39          25.65          18.32          112.4
    0.2633              -47.11          26.32          19.65          35.62          3.502         -9.706          53.88          79.18           25.8          18.68          112.4
    0.2709              -47.02          26.37          19.56          35.68          3.414         -9.575           53.3          78.93          25.98           19.1          112.4
    0.2784              -46.91          26.43          19.46          35.75           3.31         -9.418           52.6          78.64           26.2          19.61          112.3
    0.2859              -46.77           26.5          19.33          35.84          3.183         -9.227          51.76          78.28          26.47          20.23          112.3
    0.2934              -46.61          26.59          19.17          35.95          3.029         -8.995          50.73          77.84          26.79          20.98          112.2
    0.3009              -46.41          26.71          18.97          36.08          2.838         -8.708          49.45           77.3          27.19           21.9          112.2
    0.3085              -46.16          26.85          18.73          36.25            2.6          -8.35          47.87          76.63          27.69          23.06          112.1
     0.316              -45.84          27.02          18.42          36.46          2.301         -7.899          45.87          75.78          28.31          24.52          112.0
    0.3235              -45.44          27.25          18.03          36.73           1.92         -7.326          43.32          74.71          29.11          26.37          111.9
     0.331              -44.92          27.53          17.53          37.07          1.432         -6.593          40.07          73.33          30.12          28.74          111.8
    0.3386              -44.26           27.9          16.89          37.51         0.8064         -5.652           35.9          71.56          31.43          31.78          111.6
    0.3461              -43.42          28.37          16.07          38.07       0.007211         -4.449          30.56           69.3           33.1          35.66          111.4
    0.3536              -42.36          28.96          15.04          38.78        -0.9977         -2.938          23.86          66.46           35.2          40.54          111.1
    0.3611              -41.07          29.68          13.78          39.64         -2.222         -1.096          15.68           63.0          37.76          46.49          110.8
    0.3687              -39.57          30.52          12.33          40.64         -3.642           1.04          6.212          58.99          40.72          53.39          110.4
    0.3762              -37.94          31.42          10.75          41.72         -5.179          3.352         -4.045          54.64          43.93          60.86          110.0
    0.3837              -36.32          32.33          9.172          42.79         -6.716          5.664          -14.3           50.3          47.14          68.32          109.5
    0.3912              -34.82          33.16          7.716          43.79         -8.135          7.799         -23.77          46.29           50.1          75.22          109.2
    0.3988              -33.53          33.88           6.46          44.65          -9.36          9.641         -31.95          42.83          52.66          81.17          108.8
